<?xml version="1.0" encoding="UTF-8" standalone="no"?>
<!-- Created with Inkscape (http://www.inkscape.org/) -->

<svg
   width="439.49942mm"
   height="86.91851mm"
   viewBox="0 0 439.49942 86.91851"
   version="1.1"
   id="svg1"
   xml:space="preserve"
   xmlns:xlink="http://www.w3.org/1999/xlink"
   xmlns="http://www.w3.org/2000/svg"
   xmlns:svg="http://www.w3.org/2000/svg"><defs
     id="defs1"><color-profile
       name="SMPTE-RP-431-2-2007-DCI-P3"
       xlink:href="file:///System/Library/ColorSync/Profiles/DCI(P3)%20RGB.icc"
       id="color-profile1" /><linearGradient
       id="linearGradient141690"><stop
         style="stop-color:#8b5bf6;stop-opacity:1;"
         offset="0"
         id="stop141691" /><stop
         style="stop-color:#8248fa;stop-opacity:0.96078431;"
         offset="0.5"
         id="stop141693" /><stop
         style="stop-color:#7935ff;stop-opacity:0.9245283;"
         offset="1"
         id="stop141692" /></linearGradient><linearGradient
       id="linearGradient141687"><stop
         style="stop-color:#00e6ff;stop-opacity:1;"
         offset="0"
         id="stop141688" /><stop
         style="stop-color:#9d6bff;stop-opacity:1;"
         offset="0.5"
         id="stop141690" /><stop
         style="stop-color:#ff4ddd;stop-opacity:1;"
         offset="1"
         id="stop141689" /></linearGradient><linearGradient
       xlink:href="#linearGradient141687"
       id="linearGradient141689"
       x1="-385.08871"
       y1="-356.19168"
       x2="54.410721"
       y2="-356.19168"
       gradientUnits="userSpaceOnUse" /><linearGradient
       xlink:href="#linearGradient141690"
       id="linearGradient141692"
       x1="-1.2226777"
       y1="164.6385"
       x2="509.59955"
       y2="164.6385"
       gradientUnits="userSpaceOnUse" /><linearGradient
       xlink:href="#linearGradient141687"
       id="linearGradient141693"
       gradientUnits="userSpaceOnUse"
       x1="-385.08871"
       y1="-356.19168"
       x2="54.410721"
       y2="-356.19168" /></defs><g
     id="layer1"
     transform="translate(385.0887,399.65093)"><g
       id="g141651"
       style="fill:url(#linearGradient141689);fill-rule:nonzero"><path
         style="fill:url(#linearGradient141693);fill-opacity:1;fill-rule:nonzero"
         d="m -179.47783,-312.83583 c -0.13159,-0.12105 -19.51219,-0.70707 -20.91659,-0.63246 -0.37439,0.0199 -0.53002,-0.094 -0.35277,-0.25818 0.61944,-0.57373 34.47804,-1.53155 45.11995,-1.27639 12.88501,0.30894 19.76873,0.53805 23.45972,0.78079 1.84327,0.12123 3.69541,0.23745 4.11587,0.25827 0.95481,0.0473 1.49501,0.528 0.59831,0.53244 -0.36148,0.002 -4.14973,0.13998 -8.41834,0.3071 -7.65317,0.29963 -43.33741,0.53566 -43.60615,0.28843 z m 76.0617,-13.95928 c -4.35153,-0.68745 -5.59653,-6.54763 -1.87331,-8.81762 l 1.16776,-0.71196 3.52777,-7.7e-4 3.527779,-7.7e-4 1.23472,0.61681 c 0.69001,0.3447 1.51624,1.16153 1.87284,1.85154 l 0.63811,1.23472 -0.17865,1.65988 c -0.39156,3.63824 -3.91014,5.11712 -9.917019,4.16817 z m 7.263139,-2.42758 c 0.9311,-1.14985 0.914,-3.69 -0.0312,-4.63519 l -0.70556,-0.70556 h -3.514029 -3.51404 l -0.7193,0.77208 c -0.87066,0.93454 -0.97074,3.29806 -0.18703,4.41696 0.67202,0.95943 1.40884,1.11117 5.055179,1.04107 l 2.94161,-0.0566 z m -142.553419,-0.0491 v -2.46945 h 4.3423 c 4.77821,0 5.69064,-0.29694 5.48079,-1.78365 l -0.1217,-0.86218 -4.85069,-0.0982 -4.8507,-0.0982 v -0.87199 -0.87199 h 4.78569 c 4.79888,0 5.86366,0.21756 6.75656,1.38054 0.91301,1.18915 0.28425,3.50418 -1.16193,4.27816 l -0.83064,0.44454 0.9868,1.26991 c 0.54273,0.69845 1.10217,1.46834 1.2432,1.71088 l 0.25641,0.44097 -1.16735,-0.015 -1.16735,-0.015 -1.34869,-1.74886 -1.34869,-1.74887 h -2.44367 -2.44367 v 1.76389 1.76389 h -1.05834 -1.05833 z m 36.40756,-1.6757 c 3.10883,-5.11051 3.33507,-5.37986 4.51879,-5.37986 h 0.95311 l 2.46523,3.96875 c 1.35587,2.18281 2.65421,4.32594 2.88518,4.7625 l 0.41996,0.79375 h -1.00441 c -0.70693,0 -1.23613,-0.31344 -1.78686,-1.05833 l -0.78246,-1.05833 h -2.63826 -2.63826 l 0.44063,-0.70556 0.44062,-0.70556 h 1.67903 c 1.98329,0 2.01701,-0.14566 0.57591,-2.48775 l -1.10311,-1.79279 -2.33024,3.90416 -2.33023,3.90416 h -1.1431 -1.1431 z m 33.50781,-0.50276 0.11102,-4.70071 3.88056,-0.10896 c 4.5338,-0.12731 6.13539,0.248 7.38233,1.7299 l 0.90795,1.07903 v 2.08403 2.08404 l -1.02852,1.15209 -1.02851,1.15209 -5.16793,0.1146 -5.16792,0.11459 z m 9.72024,2.0082 0.87353,-1.01555 -0.19207,-1.43196 c -0.1171,-0.87305 -0.49138,-1.67434 -0.95893,-2.05293 l -0.76686,-0.62097 h -3.3123 -3.31231 v 3.21708 3.21708 l 3.3977,-0.1486 3.3977,-0.14861 z m 26.90328,-2.1228 v -4.7625 h 0.88195 0.88194 v 4.7625 4.7625 h -0.88194 -0.88195 z m -143.93333,0.17639 -19.22639,-0.17639 18.68411,-0.21399 c 16.6678,-0.1909 21.22215,-0.0976 20.10731,0.41198 -0.18625,0.0851 -8.99052,0.0754 -19.56503,-0.0216 z m 199.875719,0.0439 c -0.35805,-0.57935 -0.38413,-0.57889 22.19789,-0.39261 l 21.87223,0.18043 -16.93334,0.10623 c -9.31333,0.0584 -19.18073,0.18443 -21.92755,0.28003 -3.0963,0.10775 -5.07593,0.0416 -5.20923,-0.17408 z m -273.500789,-9.0408 c -0.41638,-0.29164 -0.9351,-1.06975 -1.15272,-1.72913 l -0.39566,-1.19887 0.74256,-12.24326 c 0.40841,-6.7338 0.68839,-12.29745 0.62218,-12.36366 -0.0662,-0.0662 -1.62353,2.35711 -3.4607,5.38516 -8.58832,14.15534 -9.85059,14.8194 -10.42071,5.48211 -0.13328,-2.18282 -0.29229,-3.96875 -0.35336,-3.96875 -0.0611,0 -0.95345,0.89165 -1.98308,1.98144 -1.02963,1.0898 -2.20204,2.1074 -2.60535,2.26134 -0.99769,0.38081 -15.70834,-0.25858 -16.15179,-0.70203 -0.62597,-0.62597 -0.034,-0.75761 4.94265,-1.0991 2.68778,-0.18443 6.19349,-0.42637 7.79046,-0.53764 l 2.90359,-0.20232 2.15467,-2.70293 c 2.7692,-3.47382 3.75463,-4.07646 5.08052,-3.10694 l 0.65361,0.47792 0.39619,4.01999 0.39619,4.01999 4.01011,-6.70278 c 7.08144,-11.83641 7.08846,-11.84538 8.83395,-11.29139 1.21231,0.38478 1.46692,2.42125 1.16605,9.32668 -0.15194,3.487 -0.16221,6.22579 -0.0228,6.08619 0.13936,-0.1396 3.17049,-6.60092 6.73585,-14.35849 3.56535,-7.75756 6.91896,-15.02443 7.45246,-16.1486 1.8934,-3.98969 5.9201,-7.51452 10.42913,-9.12931 l 2.29305,-0.82119 18.51572,0.11248 c 10.18365,0.0619 18.57126,0.16802 18.63914,0.2359 0.39217,0.39216 -4.9334,7.50376 -6.60779,8.82384 l -0.89493,0.70555 -13.61999,0.17639 -13.61999,0.17639 -1.73525,1.06901 -1.73524,1.06901 -1.63509,3.07613 c -1.96737,3.70127 -3.85816,3.1448 11.5317,3.3938 l 13.07162,0.2115 -2.61175,4.49791 -2.61176,4.49792 h -12.62153 -12.62153 l -0.39217,0.47254 c -0.21569,0.25989 -3.14663,6.19132 -6.5132,13.18095 l -6.12104,12.70841 2.67765,-1.72023 c 3.03229,-1.94807 6.88713,-3.53932 10.26237,-4.23625 l 2.29306,-0.47347 58.7375,0.0424 c 32.30563,0.0233 62.15063,0.0908 66.32222,0.14997 l 7.58473,0.10757 2.7002,-0.74424 c 3.32606,-0.91675 5.26066,-1.88403 9.95154,-4.97569 6.3588,-4.19094 8.19228,-4.12237 13.35935,0.4996 3.31316,2.96364 5.98451,4.28637 9.61946,4.76313 2.58789,0.33942 149.0125588,0.37331 170.600339,0.0395 l 7.617,-0.11779 0.76147,-1.56734 c 0.41881,-0.86204 0.76148,-1.64247 0.76148,-1.7343 0,-0.0918 -5.8612,-0.16695 -13.0248902,-0.16695 h -13.02488 l 1.81906,-3.84886 1.81905997,-3.84885 11.53947023,-7.88101 c 6.34671,-4.33455 11.54822,-7.96038 11.55892,-8.05739 0.0107,-0.097 -3.4732,-0.1308 -7.74198,-0.0751 -4.26879,0.0557 -7.7614302,0.0528 -7.7614302,-0.007 0,-0.0593 0.94415,-2.04306 2.09811,-4.40835 l 2.0981102,-4.30054 14.50975,0.0127 14.50976,0.0127 -0.1683,0.41378 c -0.0926,0.22758 -0.91533,2.0251 -1.82837,3.99449 l -1.66007,3.58071 -8.33134,5.7679 c -4.58224,3.17234 -9.90813,6.83947 -11.83532,8.14915 l -3.50397,2.38125 h 6.94493 6.94493 l 1.2226,0.51084 c 0.67243,0.28096 1.41076,0.9238 1.64074,1.42854 l 0.41813,0.9177 -0.46585,1.30549 c -0.25622,0.71802 -1.17804,2.84639 -2.04848,4.72971 -1.72776,3.73823 -1.72839,4.1565 -0.008,5.23615 l 1.15837,0.72691 1.52103,-0.15484 c 2.05469,-0.20916 3.58857,-1.3683 6.95575,-5.25639 1.55778,-1.79877 3.38341,-3.56081 4.05694,-3.91563 l 1.22462,-0.64513 5.60782,0.18518 c 8.49406,0.28049 8.21094,0.8468 -0.81386,1.6279 -4.85173,0.41992 -4.62903,0.28425 -9.03871,5.50654 l -3.53919,4.19139 -2.28164,1.18485 -2.28165,1.18485 -1.8011,-0.14641 c -1.76603,-0.14355 -3.64418,-1.04616 -5.89764,-2.83429 l -0.99596,-0.7903 -90.90265,-0.17639 -90.902649,-0.17639 -1.79002,-0.6126 c -2.05439,-0.70307 -5.44163,-2.80849 -7.47763,-4.64789 -3.55576,-3.21242 -5.58315,-3.07513 -11.47267,0.7769 -3.06662,2.00572 -7.10939,3.68799 -10.30413,4.28774 l -2.11666,0.39737 -65.96945,-0.022 -65.96945,-0.022 -2.96698,0.56289 c -4.2021,0.79723 -6.95907,1.92738 -11.82057,4.84559 -6.11379,3.66991 -7.79992,4.17785 -9.62501,2.89951 z m 135.0084,-14.99712 c -4.16157,-0.18623 -5.21535,-0.49769 -6.13731,-1.81397 l -0.52905,-0.75533 -0.86283,0.56535 c -0.47456,0.31094 -1.82712,0.89019 -3.00569,1.28722 l -2.14286,0.72188 -6.27294,-0.002 c -7.05329,-0.002 -8.33883,-0.23569 -9.82076,-1.78368 l -1.03828,-1.08456 0.0364,-2.00448 0.0364,-2.00448 1.946,-4.05694 c 1.0703,-2.23132 3.86966,-7.99349 6.2208,-12.80482 l 4.27481,-8.74788 5.03172,0.0522 c 2.76745,0.0287 5.13875,0.11751 5.26955,0.1973 0.1308,0.0798 -2.29077,5.31664 -5.38127,11.63746 -6.3901,13.06928 -6.23808,12.13804 -1.97948,12.12589 l 3.24237,-0.009 1.41111,-0.62966 1.41111,-0.62967 5.64445,-11.26733 5.64444,-11.26733 4.7447,-0.0989 c 2.60959,-0.0544 4.93072,-0.0275 5.15807,0.0597 0.26024,0.0999 -1.6607,4.35887 -5.18567,11.49744 -3.07948,6.23635 -5.59904,11.39721 -5.59904,11.46857 0,0.69561 1.36565,1.23824 3.112,1.23653 4.5683,-0.004 6.10692,-1.11476 8.48731,-6.12443 0.93428,-1.96625 3.33418,-6.86525 5.3331,-10.88667 l 3.63439,-7.31167 5.15063,0.12685 c 2.83284,0.0698 5.18194,0.14533 5.22021,0.16792 0.0542,0.032 -8.69665,17.8037 -11.81388,23.99223 -3.1404,6.23454 -9.49571,8.67203 -21.24043,8.14647 z m -82.92886,-4.31638 c 5.82237,-12.30719 12.15942,-25.59403 15.39529,-32.27917 l 3.62861,-7.49652 h 5.6618 5.66181 l -0.30639,0.79375 c -0.16851,0.43656 -2.96396,6.19125 -6.21211,12.78819 -3.24816,6.59694 -7.93797,16.16163 -10.4218,21.25486 l -4.51606,9.26042 h -5.4678 -5.46781 z m 18.13561,3.60355 c -3.86683,-1.94049 -3.57443,-3.6905 2.74012,-16.39922 l 5.07952,-10.22308 2.10172,-1.67775 c 1.15595,-0.92277 2.98158,-2.03402 4.05695,-2.46945 l 1.95522,-0.79169 h 10.75972 10.75972 l 1.11538,0.61031 c 0.61346,0.33568 1.46241,1.05005 1.88655,1.5875 l 0.77116,0.97719 -0.15919,1.94028 -0.15919,1.94028 -4.7136,9.525 -4.7136,9.525 -1.95264,1.96287 c -1.08131,1.08696 -2.89718,2.42505 -4.06931,2.99861 l -2.11667,1.03574 -10.93611,0.098 -10.93611,0.098 z m 21.1763,-7.92552 1.11607,-0.52961 3.44382,-6.8984 c 4.11157,-8.23599 4.35125,-7.5646 -2.7005,-7.5646 -7.01664,0 -6.1101,-0.6786 -10.2565,7.67762 -4.30829,8.6825 -4.5858,7.77695 2.39547,7.81675 l 4.88557,0.0279 z m 64.48227,8.20253 c 0.29648,-0.24254 1.54345,-1.71097 2.77105,-3.26319 1.22759,-1.55223 2.79383,-3.41754 3.48052,-4.14514 l 1.24852,-1.32292 h 14.42718 14.42717 l 1.12687,-0.53474 1.12687,-0.53473 1.14448,-2.32088 c 1.23033,-2.49498 1.21907,-3.37894 -0.0523,-4.10656 l -0.76984,-0.44059 -11.1125,-0.17639 -11.1125,-0.17639 -1.71017,-0.84191 c -0.94059,-0.46305 -2.02099,-1.33617 -2.40089,-1.94028 l -0.69072,-1.09837 0.13802,-1.86609 0.13802,-1.8661 3.05823,-6.18242 3.05823,-6.18243 1.80993,-1.91373 c 4.35907,-4.60906 5.3763,-4.77393 28.75276,-4.66005 l 19.10063,0.0931 -3.98611,4.40972 c -5.12987,5.67502 -3.51364,5.2473 -19.92766,5.27361 l -13.58194,0.0218 -0.98914,0.6155 c -0.57549,0.35811 -1.63954,1.81912 -2.54444,3.49368 l -1.55531,2.87817 0.42778,0.35438 c 0.25779,0.21357 4.84351,0.41248 11.54028,0.50059 l 11.1125,0.1462 1.85705,0.60514 c 2.38499,0.77717 4.19134,2.3681 4.72997,4.1659 l 0.42213,1.40895 -0.41949,1.56843 c -0.23072,0.86263 -1.67264,4.15561 -3.20428,7.31773 l -2.78479,5.7493 -2.04835,1.82566 c -1.12659,1.00411 -2.9286,2.17527 -4.00446,2.60256 l -1.95612,0.7769 -6.12461,0.13306 c -4.34115,0.0943 -6.05578,0.0217 -5.88821,-0.24946 0.13002,-0.21038 0.0883,-0.38251 -0.0927,-0.38251 -0.181,0 -1.30503,-0.87081 -2.49784,-1.93514 -2.87838,-2.56833 -3.80705,-3.00375 -6.40638,-3.00375 h -2.17115 l -1.77314,0.8906 c -0.97523,0.48983 -3.035,1.75983 -4.57728,2.82222 l -2.80413,1.93162 h -4.62541 -4.62541 z m 55.86385,-0.21224 c -4.42284,-2.06316 -4.24682,-3.34635 2.31456,-16.87305 l 4.13784,-8.53043 1.68075,-1.79685 c 1.0947,-1.17033 2.60807,-2.25516 4.34023,-3.11124 l 2.65947,-1.31439 h 10.60163 10.60163 l 1.16213,0.63449 c 0.639169,0.34897 1.482019,1.14272 1.872989,1.76389 l 0.71086,1.1294 -0.17796,1.65276 c -0.12312,1.14353 -1.56979,4.55991 -4.695209,11.08803 l -4.51725,9.43526 -1.8843,2.0467 c -1.25551,1.36372 -2.66524,2.43139 -4.22453,3.19948 l -2.34022,1.15277 -10.41576,0.0907 -10.41575,0.0907 z m 20.58307,-8.02438 0.93637,-0.5637 3.27145,-6.75644 c 1.79929,-3.71604 3.26773,-6.95488 3.26319,-7.19741 l -0.008,-0.44097 h -5.78175 -5.78175 l -0.66707,0.61736 c -0.36689,0.33955 -2.17007,3.6793 -4.00706,7.42168 l -3.33998,6.80432 0.52839,0.33403 c 0.29061,0.18372 2.80577,0.33646 5.58924,0.33943 l 5.06084,0.005 z m 16.1379,8.15522 c -0.75847,-0.27027 -1.71097,-0.82334 -2.11667,-1.22904 l -0.73763,-0.73763 0.004,-2.19506 0.004,-2.19507 5.737159,-11.98176 c 3.15544,-6.58996 5.96462,-12.32891 6.24264,-12.75321 l 0.50548,-0.77146 4.95367,-0.0499 c 2.72452,-0.0274 4.95368,0.0892 4.95368,0.2593 0,0.17006 -2.47206,5.42999 -5.49347,11.68873 -3.02141,6.25874 -5.40764,11.60319 -5.30274,11.87656 l 0.19073,0.49703 h 4.79109 4.79109 l 0.9699,-0.50155 0.9699,-0.50156 2.04511,-4.46008 c 1.12481,-2.45305 3.60278,-7.68756 5.5066,-11.63226 l 3.46149,-7.17218 4.62693,-0.0526 c 2.54482,-0.0289 4.77446,0.0386 4.95477,0.15 0.38432,0.23752 -0.36703,1.87901 -9.85326,21.52664 l -3.40762,7.05778 -1.55221,1.32864 c -0.85372,0.73075 -2.34203,1.56318 -3.30735,1.84985 l -1.75513,0.52122 -9.90195,-0.0155 -9.90194,-0.0155 z m 29.530969,0.0913 c 0.85683,-2.0418 14.86398,-31.24795 15.15753,-31.60479 l 0.38023,-0.46222 11.66904,0.10944 11.66904,0.10943 1.37053,0.68015 1.37053,0.68015 0.65701,1.48528 c 0.97998,2.21543 -1.2392,7.81677 -10.92747,27.58151 l -0.90786,1.85208 h -4.82474 -4.82474 l 5.37326,-11.37708 c 2.95529,-6.2574 5.29967,-11.57966 5.20974,-11.82726 l -0.16353,-0.45016 -5.12987,0.0974 -5.12988,0.0974 -5.57527,11.64167 -5.57527,11.64166 -4.99375,0.0981 -4.99375,0.0981 z m 39.56814,0.0558 c -0.58937,-0.17139 -1.53271,-0.79294 -2.09631,-1.38121 l -1.02473,-1.06959 0.007,-1.67378 c 0.009,-1.91849 0.62443,-3.41011 5.96021,-14.43547 l 3.61517,-7.47004 1.61669,-1.72838 c 3.31652,-3.54562 6.40386,-4.38601 15.7241898,-4.28019 l 6.50333,0.0738 2.70568997,-5.79038 2.70569003,-5.79037 4.97985,-0.0978 4.9798502,-0.0978 -1.00344,2.21448 c -1.09403,2.4144 -8.9770502,19.05445 -13.16559023,27.79087 -1.44186997,3.00743 -3.54775997,7.41274 -4.67976997,9.78958 l -2.0582,4.32153 -11.8492598,-0.0318 c -6.51709,-0.0175 -12.33146,-0.17205 -12.92084,-0.34345 z m 22.6257698,-15.58794 3.61758,-7.67291 h -5.2181698 -5.21816 l -0.86483,0.68027 c -1.04353,0.82084 -7.1424,13.58691 -6.85225,14.34304 l 0.19853,0.51737 5.35986,-0.0974 5.35986,-0.0974 z"
         id="path141341" /></g></g></svg>
